<?xml version="1.0" standalone="no"?><!DOCTYPE svg PUBLIC "-//W3C//DTD SVG 1.1//EN" "http://www.w3.org/Graphics/SVG/1.1/DTD/svg11.dtd"><svg t="1594958107262" class="icon" viewBox="0 0 1024 1024" version="1.1" xmlns="http://www.w3.org/2000/svg" p-id="17410" width="64" height="64" xmlns:xlink="http://www.w3.org/1999/xlink"><defs><style type="text/css"></style></defs><path d="M490.752 791.232A21.333 21.333 0 0 1 512 768c13.867 0 27.67-0.619 41.344-1.835C748.032 748.78 896 611.093 896 448c0-175.85-171.179-320-384-320S128 272.15 128 448c0 89.77 44.693 173.845 122.41 234.176a21.333 21.333 0 0 1-26.154 33.707C136.512 647.765 85.333 551.509 85.333 448 85.333 246.827 277.1 85.333 512 85.333S938.667 246.827 938.667 448c0 186.816-166.187 341.44-381.526 360.661-8.96 0.79-17.92 1.366-26.965 1.686-18.987 73.557-82.603 116.778-161.003 127.445-31.616 4.31-61.952 2.197-80.554-5.867-32.918-14.25-30.038-46.933 3.178-64.256 20.352-10.602 31.894-25.45 37.014-44.224 4.48-16.49 3.712-34.922-0.427-52.565a95.061 95.061 0 0 0-3.115-10.965 21.333 21.333 0 0 1 39.894-15.19c1.28 3.456 3.072 9.088 4.778 16.448 5.59 23.958 6.635 49.152 0.022 73.472a108.843 108.843 0 0 1-44.096 62.23c10.752 0.853 23.893 0.512 37.546-1.344 65.878-8.982 116.054-44.715 127.339-104.32zM352 426.667A21.333 21.333 0 0 1 352 384h341.333a21.333 21.333 0 0 1 0 42.667H352z m0 128A21.333 21.333 0 0 1 352 512h213.333a21.333 21.333 0 0 1 0 42.667H352z" fill="#ffffff" p-id="17411"></path></svg>