<?xml version="1.0" standalone="no"?><!DOCTYPE svg PUBLIC "-//W3C//DTD SVG 1.1//EN" "http://www.w3.org/Graphics/SVG/1.1/DTD/svg11.dtd"><svg t="1589165294192" class="icon" viewBox="0 0 1024 1024" version="1.1" xmlns="http://www.w3.org/2000/svg" p-id="6369" width="64" height="64" xmlns:xlink="http://www.w3.org/1999/xlink"><defs><style type="text/css"></style></defs><path d="M704 473c0-35.328 28.672-64 64-64s64 28.672 64 64-28.672 64-64 64-64-28.672-64-64z m-512 0c0-35.328 28.672-64 64-64s64 28.672 64 64-28.672 64-64 64-64-28.672-64-64z m256 0c0-35.328 28.672-64 64-64s64 28.672 64 64-28.672 64-64 64-64-28.672-64-64zM290.743 869.414l87.3-52.442a44 44 0 0 1 31.823-5.318c34.41 7.328 68.345 11.112 102.134 11.112 231.692 0 417-158.725 417-350.883C929 279.746 743.679 121 512 121S95 279.746 95 471.883c0 114.046 65.72 219.652 175.41 285.563a44 44 0 0 1 21.334 38.313l-1 73.655z m118.06 31.737l-140.472 84.383c-29.556 17.754-67.122-3.84-66.653-38.316l1.74-128.106C81.195 737.1 7 610.314 7 471.883 7 227.862 234.483 33 512 33s505 194.862 505 438.883c0 244.044-227.47 438.883-505 438.883-34.399 0-68.735-3.28-103.197-9.615z" p-id="6370" data-spm-anchor-id="a313x.7781069.0.i13" class="selected" fill="#333333"></path></svg>